<svg width="24" height="24" viewBox="0 0 24 24" fill="none" xmlns="http://www.w3.org/2000/svg">
<path fill-rule="evenodd" clip-rule="evenodd" d="M12 2C12.6133 2 13.1165 2.47398 13.1666 3.07733C16.4909 3.63584 19.0244 6.54005 19.0244 10.0392V17.6863H19.3171C19.6942 17.6863 20 17.9935 20 18.3725C20 18.7516 19.6942 19.0588 19.3171 19.0588H17.0672C16.9664 20.7001 15.6099 22 13.9512 22C12.2925 22 10.936 20.7001 10.8353 19.0588H4.68293C4.30576 19.0588 4 18.7516 4 18.3725C4 17.9935 4.30576 17.6863 4.68293 17.6863H4.97561V10.0392C4.97561 6.54005 7.50909 3.63584 10.8334 3.07733C10.8835 2.47398 11.3866 2 12 2ZM17.6585 10.0392V17.6863H6.34146V10.0392C6.34146 6.89877 8.87488 4.35294 12 4.35294C15.1251 4.35294 17.6585 6.89877 17.6585 10.0392ZM13.9512 20.6274C13.0473 20.6274 12.3029 19.9412 12.2058 19.0588H15.6966C15.5995 19.9412 14.8551 20.6274 13.9512 20.6274Z" fill="currentColor"/>
</svg>
