<svg width="24" height="24" viewBox="0 0 24 24" fill="none" xmlns="http://www.w3.org/2000/svg">
<path fill-rule="evenodd" clip-rule="evenodd" d="M16.2723 21.0543L16.8263 15.477C18.7541 14.0069 20 11.6767 20 9.05357C20 4.60571 16.4183 1 12 1C7.58172 1 4 4.60571 4 9.05357C4 11.6767 5.24591 14.0069 7.17368 15.477L7.7277 21.0543C7.83742 22.1588 8.7607 23 9.86339 23H14.1366C15.2393 23 16.1626 22.1588 16.2723 21.0543ZM15.9439 14.4245L15.5274 14.7351L15.2332 17.6964H12.683L12.6829 16.6608L14.1075 14.8681C14.5732 14.2822 14.3836 13.4133 13.7169 13.0777L11.0461 11.7334L12.5682 9.43493C12.7774 9.119 12.6926 8.69215 12.3788 8.48154C12.065 8.27092 11.641 8.35629 11.4318 8.67221L9.78706 11.1558C9.39645 11.7456 9.60776 12.5467 10.2376 12.8637L12.8902 14.1989L11.5736 15.8556C11.4075 16.0646 11.3171 16.3243 11.3171 16.5919L11.3171 17.6964H8.76681L8.47265 14.7351L8.05611 14.4245C6.42168 13.2058 5.36585 11.254 5.36585 9.05357C5.36585 5.3651 8.33606 2.375 12 2.375C15.6639 2.375 18.6341 5.3651 18.6341 9.05357C18.6341 11.254 17.5783 13.2058 15.9439 14.4245ZM9.08678 20.9175L8.9034 19.0714H15.0966L14.9132 20.9175C14.8733 21.3191 14.5376 21.625 14.1366 21.625H9.86339C9.46241 21.625 9.12667 21.3191 9.08678 20.9175Z" fill="currentColor"/>
</svg>
