<svg width="24" height="24" viewBox="0 0 24 24" fill="none" xmlns="http://www.w3.org/2000/svg">
<path d="M12 21.75C10.25 21.75 8.625 21.3167 7.125 20.45C5.625 19.5667 4.43333 18.3833 3.55 16.9C2.68333 15.4 2.25 13.7667 2.25 12C2.25 10.2333 2.68333 8.60833 3.55 7.125C4.43333 5.625 5.61667 4.44167 7.1 3.575C8.6 2.69167 10.2333 2.25 12 2.25C13.7667 2.25 15.3917 2.69167 16.875 3.575C18.375 4.44167 19.5583 5.625 20.425 7.125C21.3083 8.60833 21.75 10.2333 21.75 12C21.75 13.75 21.3083 15.375 20.425 16.875C19.5583 18.375 18.375 19.5667 16.875 20.45C15.3917 21.3167 13.7667 21.75 12 21.75ZM12 20.25C13.5167 20.25 14.9083 19.8833 16.175 19.15C17.4417 18.4167 18.4333 17.425 19.15 16.175C19.8833 14.9083 20.25 13.5167 20.25 12C20.25 10.4833 19.8833 9.09167 19.15 7.825C18.4333 6.55833 17.4417 5.56667 16.175 4.85C14.9083 4.11667 13.5167 3.75 12 3.75C10.4833 3.75 9.09167 4.11667 7.825 4.85C6.575 5.56667 5.58333 6.55833 4.85 7.825C4.11667 9.09167 3.75 10.4833 3.75 12C3.75 13.5167 4.11667 14.9083 4.85 16.175C5.58333 17.425 6.575 18.4167 7.825 19.15C9.09167 19.8833 10.4833 20.25 12 20.25ZM11.25 7C11.25 6.68333 11.375 6.46667 11.625 6.35C11.875 6.23333 12.125 6.23333 12.375 6.35C12.625 6.46667 12.75 6.68333 12.75 7V11.7L16.175 15.125C16.3917 15.3417 16.45 15.5833 16.35 15.85C16.2667 16.1 16.1 16.275 15.85 16.375C15.6 16.475 15.3583 16.4083 15.125 16.175L11.65 12.7C11.5167 12.55 11.4167 12.4083 11.35 12.275C11.2833 12.125 11.25 11.9583 11.25 11.775V7Z" fill="currentColor"/>
</svg>
