<svg width="24" height="24" viewBox="0 0 24 24" fill="none" xmlns="http://www.w3.org/2000/svg">
<path fill-rule="evenodd" clip-rule="evenodd" d="M7.30894 6.34315C7.04224 6.07645 6.60983 6.07645 6.34313 6.34315C6.07643 6.60985 6.07643 7.04225 6.34313 7.30895L11.0342 12L6.34313 16.691C6.07643 16.9577 6.07643 17.3902 6.34313 17.6569C6.60983 17.9236 7.04224 17.9236 7.30894 17.6569L12 12.9658L16.691 17.6569C16.9577 17.9236 17.3901 17.9236 17.6568 17.6569C17.9235 17.3902 17.9235 16.9577 17.6568 16.6911L12.9658 12L17.6568 7.30895C17.9235 7.04225 17.9235 6.60985 17.6568 6.34315C17.3901 6.07645 16.9577 6.07645 16.691 6.34315L12 11.0342L7.30894 6.34315Z" fill="currentColor"/>
</svg>
