<svg width="24" height="24" viewBox="0 0 24 24" fill="none" xmlns="http://www.w3.org/2000/svg">
<path d="M12 21.75C10.4333 21.75 8.94167 21.3833 7.525 20.65L4.5 21.4C4.06667 21.5167 3.68333 21.5083 3.35 21.375C3.01667 21.225 2.775 20.9917 2.625 20.675C2.49167 20.3417 2.48333 19.9583 2.6 19.525L3.35 16.475C2.61667 15.0583 2.25 13.5667 2.25 12C2.25 10.2333 2.68333 8.60833 3.55 7.125C4.43333 5.625 5.61667 4.44167 7.1 3.575C8.6 2.69167 10.2333 2.25 12 2.25C13.7667 2.25 15.3917 2.69167 16.875 3.575C18.375 4.44167 19.5583 5.625 20.425 7.125C21.3083 8.60833 21.75 10.2333 21.75 12C21.75 13.7667 21.3083 15.4 20.425 16.9C19.5583 18.3833 18.375 19.5667 16.875 20.45C15.3917 21.3167 13.7667 21.75 12 21.75ZM4.05 19.875C4 20.075 3.95 20.15 3.9 20.1C3.85 20.05 3.91667 20 4.1 19.95L7.475 19.1C7.54167 19.0833 7.61667 19.0833 7.7 19.1C7.78333 19.1 7.86667 19.125 7.95 19.175C8.56667 19.525 9.20833 19.7917 9.875 19.975C10.5583 20.1583 11.2667 20.25 12 20.25C13.5333 20.25 14.925 19.8917 16.175 19.175C17.4417 18.4417 18.4333 17.45 19.15 16.2C19.8833 14.9333 20.25 13.5333 20.25 12C20.25 10.4667 19.8833 9.075 19.15 7.825C18.4333 6.55833 17.4417 5.56667 16.175 4.85C14.925 4.11667 13.5333 3.75 12 3.75C10.4667 3.75 9.06667 4.11667 7.8 4.85C6.55 5.56667 5.55833 6.55833 4.825 7.825C4.10833 9.075 3.75 10.4667 3.75 12C3.75 12.7333 3.84167 13.4417 4.025 14.125C4.20833 14.7917 4.475 15.4333 4.825 16.05C4.90833 16.2 4.93333 16.3583 4.9 16.525L4.05 19.875Z" fill="currentColor"/>
</svg>
