<svg width="24" height="24" viewBox="0 0 24 24" fill="none" xmlns="http://www.w3.org/2000/svg">
<path fill-rule="evenodd" clip-rule="evenodd" d="M5.90206 12.5C5.90206 13.9633 7.10401 15.1485 8.58561 15.149H17.3653C19.9245 15.149 22 13.1014 22 10.5745C22 8.04759 19.9245 6 17.3653 6H8.5857C4.94901 6 2 8.90966 2 12.5C2 16.0903 4.94901 19 8.5857 19H16.8776C17.2817 19 17.6102 18.6766 17.6102 18.2765C17.6102 17.8764 17.2817 17.5529 16.8776 17.5529H8.5857C5.75724 17.5529 3.46522 15.2902 3.46522 12.5C3.46522 9.70984 5.75724 7.44708 8.5857 7.44708H17.3653C19.1163 7.44708 20.5348 8.84777 20.5348 10.5745C20.5348 12.3013 19.1163 13.7019 17.3653 13.7019H8.58585C7.91186 13.7015 7.36728 13.1626 7.36728 12.5C7.36728 11.8374 7.91186 11.2985 8.58585 11.2981H16.8776C17.2817 11.2981 17.6102 10.9746 17.6102 10.5745C17.6102 10.1744 17.2817 9.85097 16.8776 9.85097H8.58561C7.10401 9.85153 5.90206 11.0367 5.90206 12.5Z" fill="currentColor"/>
</svg>
