<svg width="24" height="24" viewBox="0 0 24 24" fill="none" xmlns="http://www.w3.org/2000/svg">
<path d="M12 21.75C10.25 21.75 8.625 21.3167 7.125 20.45C5.625 19.5667 4.43333 18.375 3.55 16.875C2.68333 15.375 2.25 13.75 2.25 12C2.25 10.2333 2.68333 8.60833 3.55 7.125C4.43333 5.625 5.625 4.44167 7.125 3.575C8.625 2.69167 10.25 2.25 12 2.25C13.7667 2.25 15.3917 2.69167 16.875 3.575C18.375 4.44167 19.5583 5.625 20.425 7.125C21.3083 8.60833 21.75 10.2333 21.75 12C21.75 13.75 21.3083 15.375 20.425 16.875C19.5583 18.375 18.375 19.5667 16.875 20.45C15.3917 21.3167 13.7667 21.75 12 21.75ZM12 20.25C13.5167 20.25 14.9083 19.8833 16.175 19.15C17.4417 18.4167 18.4333 17.425 19.15 16.175C19.8833 14.9083 20.25 13.5167 20.25 12C20.25 10.4833 19.8833 9.09167 19.15 7.825C18.4333 6.55833 17.4417 5.56667 16.175 4.85C14.9083 4.11667 13.5167 3.75 12 3.75C10.4833 3.75 9.09167 4.11667 7.825 4.85C6.575 5.56667 5.58333 6.55833 4.85 7.825C4.11667 9.09167 3.75 10.4833 3.75 12C3.75 13.5167 4.11667 14.9083 4.85 16.175C5.58333 17.425 6.575 18.4167 7.825 19.15C9.09167 19.8833 10.4833 20.25 12 20.25ZM6.975 12.525C6.75833 12.2917 6.69167 12.05 6.775 11.8C6.85833 11.5333 7.03333 11.3583 7.3 11.275C7.58333 11.1917 7.825 11.2583 8.025 11.475L10.525 13.95L15.975 8.475C16.1917 8.24167 16.4333 8.175 16.7 8.275C16.9667 8.35833 17.1417 8.53333 17.225 8.8C17.3083 9.06667 17.25 9.30833 17.05 9.525L11.075 15.525C10.9083 15.6917 10.725 15.775 10.525 15.775C10.325 15.775 10.15 15.6917 10 15.525L6.975 12.525Z" fill="currentColor"/>
</svg>
