<svg width="24" height="24" viewBox="0 0 24 24" fill="none" xmlns="http://www.w3.org/2000/svg">
<path fill-rule="evenodd" clip-rule="evenodd" d="M4.44156 4.67578C4.44156 3.99621 4.99103 3.44531 5.66883 3.44531H12.487C13.1648 3.44531 13.7143 3.99621 13.7143 4.67578V14.4414C13.7143 15.121 13.1648 15.6719 12.487 15.6719H5.66883C4.99103 15.6719 4.44156 15.121 4.44156 14.4414V4.67578ZM5.66883 2C4.19488 2 3 3.19799 3 4.67578V14.4414C3 15.9192 4.19488 17.1172 5.66883 17.1172H8.84416V19.3242C8.84416 20.802 10.039 22 11.513 22H18.3312C19.8051 22 21 20.802 21 19.3242V9.55859C21 8.0808 19.8051 6.88281 18.3312 6.88281H15.1558V4.67578C15.1558 3.19799 13.961 2 12.487 2H5.66883ZM19.5584 19.3242C19.5584 20.0038 19.009 20.5547 18.3312 20.5547H11.513C10.8352 20.5547 10.2857 20.0038 10.2857 19.3242V17.1172H12.487C13.961 17.1172 15.1558 15.9192 15.1558 14.4414V8.32812H18.3312C19.009 8.32812 19.5584 8.87902 19.5584 9.55859V19.3242Z" fill="currentColor"/>
</svg>
