<svg width="24" height="24" viewBox="0 0 24 24" fill="none" xmlns="http://www.w3.org/2000/svg">
<path d="M6 19.75C5.31667 19.75 4.68333 19.5833 4.1 19.25C3.53333 18.9167 3.08333 18.4667 2.75 17.9C2.41667 17.3167 2.25 16.6833 2.25 16V8C2.25 7.31667 2.41667 6.69167 2.75 6.125C3.08333 5.54167 3.53333 5.08333 4.1 4.75C4.68333 4.41667 5.31667 4.25 6 4.25H18C18.6833 4.25 19.3083 4.41667 19.875 4.75C20.4583 5.08333 20.9167 5.54167 21.25 6.125C21.5833 6.69167 21.75 7.31667 21.75 8V16C21.75 16.6833 21.5833 17.3167 21.25 17.9C20.9167 18.4667 20.4583 18.9167 19.875 19.25C19.3083 19.5833 18.6833 19.75 18 19.75H6ZM18 18.25C18.45 18.25 18.8417 18.1583 19.175 17.975C19.525 17.775 19.7917 17.5083 19.975 17.175C20.1583 16.8417 20.25 16.45 20.25 16V9.275L13.65 12.95C13.1667 13.2167 12.6167 13.35 12 13.35C11.3833 13.35 10.8417 13.2167 10.375 12.95L3.75 9.275V16C3.75 16.45 3.84167 16.8417 4.025 17.175C4.225 17.5083 4.49167 17.775 4.825 17.975C5.15833 18.1583 5.55 18.25 6 18.25H18ZM11.1 11.625C11.3833 11.775 11.6833 11.85 12 11.85C12.3333 11.85 12.6417 11.775 12.925 11.625L20.125 7.625L20.225 7.575C20.175 7.225 20.05 6.90833 19.85 6.625C19.6667 6.34167 19.4083 6.125 19.075 5.975C18.7583 5.825 18.4 5.75 18 5.75H6C5.6 5.75 5.24167 5.825 4.925 5.975C4.60833 6.125 4.35 6.34167 4.15 6.625C3.95 6.90833 3.83333 7.225 3.8 7.575L3.875 7.625L11.1 11.625Z" fill="currentColor"/>
</svg>
