<svg width="24" height="24" viewBox="0 0 24 24" fill="none" xmlns="http://www.w3.org/2000/svg">
<path fill-rule="evenodd" clip-rule="evenodd" d="M14.8964 11.8495L21.6453 4.30334C22.4395 3.41522 21.8132 2 20.6259 2H3.37412C2.18678 2 1.56045 3.41522 2.35475 4.30335L9.10363 11.8495C9.26552 12.0305 9.3551 12.2654 9.3551 12.509V20.6171C9.3551 21.9079 10.9589 22.4923 11.7801 21.5007L14.327 18.425C14.5324 18.177 14.6449 17.8643 14.6449 17.5415V12.509C14.6449 12.2654 14.7345 12.0305 14.8964 11.8495ZM10.123 10.9263L3.37412 3.38011L20.6259 3.3801L13.877 10.9263C13.4885 11.3607 13.2735 11.9245 13.2735 12.509L13.2735 17.5415L10.7265 20.6171L10.7265 12.509C10.7265 11.9245 10.5115 11.3607 10.123 10.9263Z" fill="currentColor"/>
</svg>
