<svg width="24" height="24" viewBox="0 0 24 24" fill="none" xmlns="http://www.w3.org/2000/svg">
<path fill-rule="evenodd" clip-rule="evenodd" d="M4.13904 10.7928C3.51939 10.8493 3 11.3528 3 12C3 12.6472 3.51939 13.1507 4.13904 13.2072C6.10019 13.386 7.67045 14.082 8.79422 15.2058C9.91798 16.3295 10.614 17.8998 10.7928 19.861C10.8493 20.4806 11.3528 21 12 21C12.6472 21 13.1508 20.4806 13.2072 19.8609C13.3858 17.8974 14.0814 16.3164 15.2045 15.1868C16.3272 14.0576 17.8954 13.3609 19.8534 13.1987C20.4749 13.1472 21 12.6446 21 11.9949C21 11.3505 20.483 10.8491 19.8659 10.7933C17.9009 10.6155 16.3187 9.9201 15.1883 8.79696C14.0582 7.67417 13.361 6.10542 13.1987 4.14659C13.1472 3.52506 12.6446 3 11.9949 3C11.3505 3 10.8492 3.51702 10.7932 4.13402C10.6153 6.09668 9.91953 7.66816 8.79566 8.79278C7.67179 9.91739 6.10102 10.6139 4.13904 10.7928ZM9.82621 14.1738C8.75217 13.0997 7.38445 12.374 5.80191 12C7.38534 11.6258 8.75369 10.8994 9.828 9.82443C10.892 8.75969 11.614 7.40658 11.9905 5.84183C12.361 7.41175 13.0878 8.76736 14.1596 9.83229C15.2289 10.8947 16.5886 11.6152 18.1562 11.9909C16.588 12.3614 15.2337 13.0874 14.1695 14.1578C13.0971 15.2365 12.3728 16.6109 11.9995 18.1962C11.6254 16.6145 10.8998 15.2474 9.82621 14.1738Z" fill="currentColor"/>
</svg>
