<svg width="24" height="24" viewBox="0 0 24 24" fill="none" xmlns="http://www.w3.org/2000/svg">
<rect opacity="0.4" x="2" y="2" width="20" height="20" rx="4" stroke="currentColor" stroke-width="1.1" stroke-linecap="round" stroke-dasharray="1.2 2"/>
<path d="M8.62812 12.6553H9.76316V13.949C9.66698 14.0197 9.54317 14.081 9.38811 14.1303C9.21021 14.1834 9.01794 14.2105 8.81051 14.2105C8.50167 14.2105 8.2326 14.1583 8.00039 14.0574C7.77249 13.9561 7.58131 13.8121 7.42507 13.6249C7.26853 13.4374 7.14741 13.2062 7.06393 12.9279C6.98037 12.6494 6.93761 12.3353 6.93761 11.9842C6.93761 11.6344 6.98281 11.3245 7.07082 11.0528C7.16507 10.779 7.29165 10.552 7.44855 10.3688C7.61039 10.181 7.80428 10.0396 8.03163 9.9434L8.03164 9.94342L8.03408 9.94234C8.26149 9.84128 8.51676 9.78947 8.80222 9.78947C9.10082 9.78947 9.33402 9.84199 9.51022 9.93722L9.51021 9.93725L9.51289 9.93863C9.70468 10.0374 9.87177 10.1575 10.0151 10.2989C10.0445 10.3279 10.0846 10.3435 10.1259 10.342C10.1672 10.3405 10.2061 10.322 10.2333 10.2909L10.6478 9.8172C10.6996 9.75803 10.6969 9.66891 10.6416 9.61298C10.5476 9.51778 10.44 9.42645 10.3195 9.33879C10.1988 9.24165 10.0618 9.15976 9.90927 9.09254C9.75536 9.01946 9.58561 8.96125 9.40072 8.91724C9.21088 8.87204 9.00561 8.85 8.78564 8.85C8.3649 8.85 7.97274 8.92142 7.61078 9.06596L7.61078 9.06596L7.61 9.06628C7.25328 9.21106 6.94255 9.4231 6.67911 9.70168C6.4148 9.97591 6.21115 10.3097 6.0667 10.7003C5.92121 11.0883 5.85 11.525 5.85 12.0079C5.85 12.4904 5.91832 12.9288 6.05762 13.3212L6.05759 13.3212L6.05853 13.3237C6.20267 13.7081 6.40015 14.0384 6.65243 14.3122L6.65241 14.3122L6.65467 14.3146C6.91299 14.5829 7.22096 14.7893 7.57684 14.9337C7.93352 15.0785 8.32043 15.15 8.7359 15.15C9.16536 15.15 9.55199 15.0846 9.89314 14.9502C10.2335 14.8184 10.5126 14.6477 10.7243 14.4347C10.7522 14.4066 10.7679 14.3686 10.7679 14.3289V11.8974C10.7679 11.8145 10.7007 11.7474 10.6179 11.7474H8.62812C8.54528 11.7474 8.47812 11.8145 8.47812 11.8974V12.5053C8.47812 12.5881 8.54528 12.6553 8.62812 12.6553ZM12.9852 9.11053C12.9852 9.02768 12.9181 8.96053 12.8352 8.96053H12.0642C11.9813 8.96053 11.9142 9.02768 11.9142 9.11053V14.8974C11.9142 14.9802 11.9813 15.0474 12.0642 15.0474H12.8352C12.9181 15.0474 12.9852 14.9802 12.9852 14.8974V9.11053ZM18.15 9.11053C18.15 9.02768 18.0828 8.96053 18 8.96053H14.4931C14.4102 8.96053 14.3431 9.02768 14.3431 9.11053V14.8974C14.3431 14.9802 14.4102 15.0474 14.4931 15.0474H15.2641C15.3469 15.0474 15.4141 14.9802 15.4141 14.8974V12.45H17.5855C17.6683 12.45 17.7355 12.3828 17.7355 12.3V11.6842C17.7355 11.6014 17.6683 11.5342 17.5855 11.5342H15.4141V9.87632H18C18.0828 9.87632 18.15 9.80916 18.15 9.72632V9.11053Z" fill="currentColor" stroke="currentColor" stroke-width="0.3" stroke-linejoin="round"/>
</svg>
