<svg width="24" height="24" viewBox="0 0 24 24" fill="none" xmlns="http://www.w3.org/2000/svg">
<path d="M7 20.75C6.33333 20.75 5.70833 20.5834 5.125 20.25C4.55833 19.9 4.1 19.4417 3.75 18.875C3.41667 18.2917 3.25 17.6667 3.25 17.0001V11.2501C3.25 10.7501 3.35 10.2667 3.55 9.80005C3.75 9.33338 4.01667 8.93338 4.35 8.60005L9.35 3.60005C9.83333 3.11672 10.3917 2.79172 11.025 2.62505C11.675 2.44172 12.325 2.44172 12.975 2.62505C13.625 2.79172 14.1833 3.11672 14.65 3.60005L19.65 8.60005C20 8.93338 20.2667 9.33338 20.45 9.80005C20.65 10.2667 20.75 10.7501 20.75 11.2501V17.0001C20.75 17.6667 20.5833 18.2917 20.25 18.875C19.9167 19.4417 19.4583 19.9 18.875 20.25C18.3083 20.5834 17.6833 20.75 17 20.75H7ZM17 19.25C17.45 19.25 17.8417 19.1584 18.175 18.975C18.525 18.775 18.7917 18.5084 18.975 18.175C19.1583 17.825 19.25 17.4334 19.25 17.0001V11.2501C19.25 10.9667 19.2167 10.7084 19.15 10.475C19.1 10.325 19.025 10.1834 18.925 10.05C18.8417 9.91672 18.7333 9.78338 18.6 9.65005L13.6 4.65005C13.1167 4.16672 12.5833 3.92505 12 3.92505C11.4167 3.92505 10.8833 4.16672 10.4 4.65005L5.4 9.65005C5.26667 9.78338 5.15833 9.91672 5.075 10.05C4.99167 10.1834 4.925 10.325 4.875 10.475C4.79167 10.7084 4.75 10.9667 4.75 11.2501V17.0001C4.75 17.4334 4.84167 17.825 5.025 18.175C5.225 18.5084 5.49167 18.775 5.825 18.975C6.175 19.1584 6.56667 19.25 7 19.25H17ZM13.25 20V13.45C13.25 13.2 13.2 12.9834 13.1 12.8C13.0167 12.6167 12.8833 12.4834 12.7 12.4001C12.5167 12.3 12.3 12.25 12.05 12.25H11.95C11.7 12.25 11.4833 12.3 11.3 12.4001C11.1333 12.4834 11 12.6167 10.9 12.8C10.8 12.9834 10.75 13.2 10.75 13.45V20H9.25V13.45C9.25 12.7 9.51667 12.0667 10.05 11.55C10.5833 11.0167 11.2167 10.75 11.95 10.75H12.05C12.8 10.75 13.4333 11.0167 13.95 11.55C14.4833 12.0667 14.75 12.7 14.75 13.45V20H13.25Z" fill="currentColor"/>
</svg>
