<svg width="24" height="24" viewBox="0 0 24 24" fill="none" xmlns="http://www.w3.org/2000/svg">
<path fill-rule="evenodd" clip-rule="evenodd" d="M15.9216 11.2195C17.1128 11.2195 18.0784 10.2586 18.0784 9.07317C18.0784 7.88778 17.1128 6.92683 15.9216 6.92683C14.7304 6.92683 13.7647 7.88778 13.7647 9.07317C13.7647 10.2586 14.7304 11.2195 15.9216 11.2195ZM16.7059 9.07317C16.7059 9.50422 16.3547 9.85366 15.9216 9.85366C15.4884 9.85366 15.1373 9.50422 15.1373 9.07317C15.1373 8.64212 15.4884 8.29268 15.9216 8.29268C16.3547 8.29268 16.7059 8.64212 16.7059 9.07317Z" fill="currentColor"/>
<path fill-rule="evenodd" clip-rule="evenodd" d="M5.13725 4C3.4046 4 2 5.39775 2 7.12195V16.878C2 18.6023 3.4046 20 5.13725 20H18.8627C20.5954 20 22 18.6023 22 16.878V7.12195C22 5.39775 20.5954 4 18.8627 4H5.13725ZM16.902 11.7241L13.9608 14.6509L7.09804 7.82162L3.37255 11.5289V7.12195C3.37255 6.15209 4.16263 5.36585 5.13725 5.36585H18.8627C19.8374 5.36585 20.6274 6.15209 20.6274 7.12195V15.4314L16.902 11.7241ZM13.9608 16.5825L16.902 13.6557L20.5738 17.3096C20.3806 18.0708 19.6876 18.6341 18.8627 18.6341H5.13725C4.16263 18.6341 3.37255 17.8479 3.37255 16.878V13.4605L7.09804 9.75322L13.9608 16.5825Z" fill="currentColor"/>
</svg>
