<svg width="24" height="24" viewBox="0 0 24 24" fill="none" xmlns="http://www.w3.org/2000/svg">
<path d="M10 12.75C9.7 12.75 9.48333 12.625 9.35 12.375C9.23333 12.125 9.23333 11.875 9.35 11.625C9.48333 11.375 9.7 11.25 10 11.25H20C20.3167 11.25 20.5333 11.375 20.65 11.625C20.7667 11.875 20.7667 12.125 20.65 12.375C20.5333 12.625 20.3167 12.75 20 12.75H10ZM10 6.75C9.7 6.75 9.48333 6.625 9.35 6.375C9.23333 6.125 9.23333 5.875 9.35 5.625C9.48333 5.375 9.7 5.25 10 5.25H20C20.3167 5.25 20.5333 5.375 20.65 5.625C20.7667 5.875 20.7667 6.125 20.65 6.375C20.5333 6.625 20.3167 6.75 20 6.75H10ZM10 18.75C9.7 18.75 9.48333 18.625 9.35 18.375C9.23333 18.125 9.23333 17.875 9.35 17.625C9.48333 17.375 9.7 17.25 10 17.25H20C20.3167 17.25 20.5333 17.375 20.65 17.625C20.7667 17.875 20.7667 18.125 20.65 18.375C20.5333 18.625 20.3167 18.75 20 18.75H10ZM6.75 12C6.75 12.4833 6.575 12.9 6.225 13.25C5.89167 13.5833 5.48333 13.75 5 13.75C4.51667 13.75 4.1 13.575 3.75 13.225C3.41667 12.875 3.25 12.4667 3.25 12C3.25 11.5167 3.425 11.1083 3.775 10.775C4.125 10.425 4.53333 10.25 5 10.25C5.48333 10.25 5.89167 10.425 6.225 10.775C6.575 11.1083 6.75 11.5167 6.75 12ZM6.75 6C6.75 6.48333 6.575 6.9 6.225 7.25C5.89167 7.58333 5.48333 7.75 5 7.75C4.51667 7.75 4.1 7.575 3.75 7.225C3.41667 6.875 3.25 6.46667 3.25 6C3.25 5.51667 3.425 5.10833 3.775 4.775C4.125 4.425 4.53333 4.25 5 4.25C5.48333 4.25 5.89167 4.425 6.225 4.775C6.575 5.10833 6.75 5.51667 6.75 6ZM6.75 18C6.75 18.4833 6.575 18.9 6.225 19.25C5.89167 19.5833 5.48333 19.75 5 19.75C4.51667 19.75 4.1 19.575 3.75 19.225C3.41667 18.875 3.25 18.4667 3.25 18C3.25 17.5167 3.425 17.1083 3.775 16.775C4.125 16.425 4.53333 16.25 5 16.25C5.48333 16.25 5.89167 16.425 6.225 16.775C6.575 17.1083 6.75 17.5167 6.75 18Z" fill="currentColor"/>
</svg>
