<svg width="24" height="24" viewBox="0 0 24 24" fill="none" xmlns="http://www.w3.org/2000/svg">
<path fill-rule="evenodd" clip-rule="evenodd" d="M11.2727 15.9112V18.1111H12.7273V15.9112C13.0213 15.6884 13.2121 15.3335 13.2121 14.9333C13.2121 14.2583 12.6694 13.7111 12 13.7111C11.3306 13.7111 10.7879 14.2583 10.7879 14.9333C10.7879 15.3335 10.9787 15.6884 11.2727 15.9112ZM17.0909 6.13333C17.0909 3.29827 14.8116 1 12 1C9.18837 1 6.90909 3.29827 6.90909 6.13333V8.82222H6.18182C4.97683 8.82222 4 9.8072 4 11.0222V20.8C4 22.015 4.97683 23 6.18182 23H17.8182C19.0232 23 20 22.015 20 20.8V11.0222C20 9.8072 19.0232 8.82222 17.8182 8.82222H17.0909V6.13333ZM5.45455 11.0222C5.45455 10.6172 5.78016 10.2889 6.18182 10.2889H17.8182C18.2198 10.2889 18.5455 10.6172 18.5455 11.0222V20.8C18.5455 21.205 18.2198 21.5333 17.8182 21.5333H6.18182C5.78016 21.5333 5.45455 21.205 5.45455 20.8V11.0222ZM15.6364 6.13333V8.82222H8.36364V6.13333C8.36364 4.10829 9.99169 2.46667 12 2.46667C14.0083 2.46667 15.6364 4.10829 15.6364 6.13333Z" fill="currentColor"/>
</svg>
