<svg width="24" height="24" viewBox="0 0 24 24" fill="none" xmlns="http://www.w3.org/2000/svg">
<path d="M17 3.25C17.6833 3.25 18.3083 3.41667 18.875 3.75C19.4583 4.08333 19.9166 4.54167 20.25 5.125C20.5833 5.69167 20.75 6.31667 20.75 7V17C20.75 17.6667 20.5833 18.2917 20.25 18.875C19.9166 19.4417 19.4583 19.9 18.875 20.25C18.3083 20.5833 17.6833 20.75 17 20.75H16C15.7 20.75 15.4833 20.625 15.35 20.375C15.2333 20.125 15.2333 19.875 15.35 19.625C15.4833 19.375 15.7 19.25 16 19.25H17C17.6833 19.25 18.225 19.0417 18.625 18.625C19.0416 18.2083 19.25 17.6667 19.25 17V7C19.25 6.31667 19.0416 5.775 18.625 5.375C18.225 4.95833 17.6833 4.75 17 4.75H16C15.7833 4.75 15.6083 4.675 15.475 4.525C15.3416 4.375 15.275 4.2 15.275 4C15.275 3.8 15.3416 3.625 15.475 3.475C15.6083 3.325 15.7833 3.25 16 3.25H17ZM11.475 8.525C11.275 8.30833 11.2166 8.06667 11.3 7.8C11.3833 7.53333 11.55 7.35833 11.8 7.275C12.0666 7.175 12.3083 7.24167 12.525 7.475L16.525 11.45C16.6916 11.6167 16.775 11.8 16.775 12C16.775 12.2 16.6916 12.3833 16.525 12.55L12.525 16.525C12.325 16.725 12.0833 16.7833 11.8 16.7C11.5333 16.6167 11.3583 16.45 11.275 16.2C11.1916 15.9333 11.2583 15.6917 11.475 15.475L14.95 12L11.475 8.525ZM16 11.25V12.75H3.99995C3.69995 12.75 3.48328 12.625 3.34995 12.375C3.23328 12.125 3.23328 11.875 3.34995 11.625C3.48328 11.375 3.69995 11.25 3.99995 11.25H16Z" fill="currentColor"/>
</svg>
