<svg width="24" height="24" viewBox="0 0 24 24" fill="none" xmlns="http://www.w3.org/2000/svg">
<path d="M7 20.75C6.33333 20.75 5.70833 20.5833 5.125 20.25C4.55833 19.9 4.1 19.4417 3.75 18.875C3.41667 18.2917 3.25 17.6667 3.25 17V7C3.25 6.33333 3.41667 5.71667 3.75 5.15C4.1 4.56667 4.55833 4.10833 5.125 3.775C5.70833 3.425 6.33333 3.25 7 3.25H8C8.31667 3.25 8.53333 3.375 8.65 3.625C8.76667 3.875 8.76667 4.125 8.65 4.375C8.53333 4.625 8.31667 4.75 8 4.75H7C6.33333 4.75 5.79167 4.95833 5.375 5.375C4.95833 5.775 4.75 6.31667 4.75 7V17C4.75 17.6667 4.95833 18.2083 5.375 18.625C5.79167 19.0417 6.33333 19.25 7 19.25H8C8.23333 19.25 8.41667 19.325 8.55 19.475C8.68333 19.625 8.75 19.8 8.75 20C8.75 20.2 8.68333 20.375 8.55 20.525C8.41667 20.675 8.23333 20.75 8 20.75H7ZM15.475 8.525C15.275 8.30833 15.2167 8.06667 15.3 7.8C15.3833 7.53333 15.55 7.35833 15.8 7.275C16.0667 7.175 16.3083 7.24167 16.525 7.475L20.525 11.45C20.6917 11.6167 20.775 11.8 20.775 12C20.775 12.2 20.6917 12.3833 20.525 12.55L16.525 16.525C16.325 16.725 16.0833 16.7833 15.8 16.7C15.5333 16.6167 15.3583 16.45 15.275 16.2C15.1917 15.9333 15.2583 15.6917 15.475 15.475L18.95 12L15.475 8.525ZM20 11.25V12.75H8C7.7 12.75 7.48333 12.625 7.35 12.375C7.23333 12.125 7.23333 11.875 7.35 11.625C7.48333 11.375 7.7 11.25 8 11.25H20Z" fill="currentColor"/>
</svg>
