<svg width="24" height="24" viewBox="0 0 24 24" fill="none" xmlns="http://www.w3.org/2000/svg">
<path fill-rule="evenodd" clip-rule="evenodd" d="M8.03814 6.93734L18.2139 3.12727C18.9147 2.86349 19.608 3.02751 20.129 3.45552C20.6513 3.88454 21 4.57901 21 5.37062V14.6865C21 16.3394 19.4614 17.4709 18.1047 16.8848L10.9393 14.2119L11.7276 18.5471C11.9598 19.8243 10.9786 21 9.68024 21C8.67455 21 7.81278 20.2809 7.63288 19.2915L6.51242 13.1297H4.62071C3.72561 13.1297 3 12.4042 3 11.5092V8.55785C3 7.66288 3.72561 6.93734 4.62071 6.93734H8.03814ZM9.19314 7.86468V12.2013L18.5852 15.7049L18.6076 15.715C18.7895 15.7943 19.0706 15.7618 19.3012 15.6035C19.5394 15.4399 19.7264 15.1424 19.7264 14.6865V5.37062C19.7264 4.94155 19.5424 4.62004 19.3254 4.44344C19.1168 4.27366 18.887 4.23459 18.6627 4.319L18.6612 4.31959L9.19314 7.86468ZM10.4745 18.7749L9.55059 13.6939L8.03824 13.1297H7.80691L8.88595 19.0637C8.95575 19.4476 9.29009 19.7266 9.68024 19.7266C10.1839 19.7266 10.5646 19.2705 10.4745 18.7749ZM7.91953 11.8563V8.21078H4.62071C4.42902 8.21078 4.27361 8.36615 4.27361 8.55785V11.5092C4.27361 11.7009 4.42902 11.8563 4.62071 11.8563H7.91953Z" fill="currentColor"/>
</svg>
