<svg width="24" height="24" viewBox="0 0 24 24" fill="none" xmlns="http://www.w3.org/2000/svg">
<path fill-rule="evenodd" clip-rule="evenodd" d="M12.7241 16.1463H18.003C18.5536 16.1463 19 15.6953 19 15.1389C19 13.0587 17.8216 11.2572 16.1034 10.3777V4.7447C16.6941 4.23352 17.069 3.47377 17.069 2.62566C17.069 2.28012 16.7917 2 16.4498 2H7.55022C7.20826 2 6.93103 2.28012 6.93103 2.62566C6.93103 3.47377 7.30592 4.23352 7.89655 4.7447V10.3777C6.17843 11.2571 5 13.0587 5 15.1389C5 15.6953 5.44637 16.1463 5.997 16.1463H11.2759V21.2683C11.2759 21.6724 11.6001 22 12 22C12.3999 22 12.7241 21.6724 12.7241 21.2683V16.1463ZM15.1172 3.6698L14.6552 4.036V11.3042L15.3485 11.6336C16.5228 12.1915 17.3686 13.3318 17.5254 14.6829L6.47456 14.6829C6.63142 13.3318 7.4772 12.1915 8.65147 11.6336L9.34483 11.3042V4.036L8.8828 3.6698C8.80579 3.60876 8.73587 3.53951 8.67431 3.46341H15.3257C15.2641 3.53951 15.1942 3.60876 15.1172 3.6698Z" fill="currentColor"/>
</svg>
