<svg width="24" height="24" viewBox="0 0 24 24" fill="none" xmlns="http://www.w3.org/2000/svg">
<path fill-rule="evenodd" clip-rule="evenodd" d="M12.6829 4.68293C12.6829 4.30576 12.3772 4 12 4C11.6228 4 11.3171 4.30576 11.3171 4.68293V11.3171H4.68293C4.30576 11.3171 4 11.6228 4 12C4 12.3772 4.30576 12.6829 4.68293 12.6829H11.3171V19.3171C11.3171 19.6942 11.6228 20 12 20C12.3772 20 12.6829 19.6942 12.6829 19.3171V12.6829H19.3171C19.6942 12.6829 20 12.3772 20 12C20 11.6228 19.6942 11.3171 19.3171 11.3171H12.6829V4.68293Z" fill="currentColor"/>
</svg>
