<svg width="24" height="24" viewBox="0 0 24 24" fill="none" xmlns="http://www.w3.org/2000/svg">
<path d="M12 21.75C10.25 21.75 8.625 21.3167 7.125 20.45C5.625 19.5667 4.43333 18.3833 3.55 16.9C2.68333 15.4 2.25 13.7667 2.25 12C2.25 10.2333 2.68333 8.60833 3.55 7.125C4.43333 5.625 5.61667 4.44167 7.1 3.575C8.6 2.69167 10.2333 2.25 12 2.25C13.7667 2.25 15.3917 2.69167 16.875 3.575C18.375 4.44167 19.5583 5.625 20.425 7.125C21.3083 8.60833 21.75 10.2333 21.75 12C21.75 13.75 21.3083 15.375 20.425 16.875C19.5583 18.375 18.375 19.5667 16.875 20.45C15.3917 21.3167 13.7667 21.75 12 21.75ZM12 20.25C13.5167 20.25 14.9083 19.8833 16.175 19.15C17.4417 18.4167 18.4333 17.425 19.15 16.175C19.8833 14.9083 20.25 13.5167 20.25 12C20.25 10.4833 19.8833 9.09167 19.15 7.825C18.4333 6.55833 17.4417 5.56667 16.175 4.85C14.9083 4.11667 13.5167 3.75 12 3.75C10.4833 3.75 9.09167 4.11667 7.825 4.85C6.575 5.56667 5.58333 6.55833 4.85 7.825C4.11667 9.09167 3.75 10.4833 3.75 12C3.75 13.5167 4.11667 14.9083 4.85 16.175C5.58333 17.425 6.575 18.4167 7.825 19.15C9.09167 19.8833 10.4833 20.25 12 20.25ZM11.25 7C11.25 6.68333 11.375 6.46667 11.625 6.35C11.875 6.23333 12.125 6.23333 12.375 6.35C12.625 6.46667 12.75 6.68333 12.75 7V13C12.75 13.3 12.625 13.5167 12.375 13.65C12.125 13.7667 11.875 13.7667 11.625 13.65C11.375 13.5167 11.25 13.3 11.25 13V7ZM13.25 16.5C13.25 16.8333 13.125 17.125 12.875 17.375C12.6417 17.625 12.35 17.75 12 17.75C11.6667 17.75 11.375 17.625 11.125 17.375C10.875 17.125 10.75 16.8333 10.75 16.5C10.75 16.15 10.875 15.8583 11.125 15.625C11.375 15.375 11.6667 15.25 12 15.25C12.35 15.25 12.6417 15.375 12.875 15.625C13.125 15.8583 13.25 16.15 13.25 16.5Z" fill="currentColor"/>
</svg>
