<svg width="24" height="24" viewBox="0 0 24 24" fill="none" xmlns="http://www.w3.org/2000/svg">
<path fill-rule="evenodd" clip-rule="evenodd" d="M10.5887 18.1773C12.4357 18.1773 14.1289 17.5173 15.4448 16.4204L19.8223 20.7979C20.0917 21.0674 20.5285 21.0674 20.7979 20.7979C21.0674 20.5285 21.0674 20.0917 20.7979 19.8223L16.4204 15.4448C17.5173 14.1289 18.1774 12.4357 18.1774 10.5887C18.1774 6.39756 14.7798 3 10.5887 3C6.39757 3 3 6.39756 3 10.5887C3 14.7798 6.39757 18.1773 10.5887 18.1773ZM16.7976 10.5887C16.7976 14.0178 14.0178 16.7976 10.5887 16.7976C7.1596 16.7976 4.37976 14.0178 4.37976 10.5887C4.37976 7.15958 7.1596 4.37976 10.5887 4.37976C14.0178 4.37976 16.7976 7.15958 16.7976 10.5887Z" fill="currentColor"/>
</svg>
