<svg width="24" height="24" viewBox="0 0 24 24" fill="none" xmlns="http://www.w3.org/2000/svg">
<path fill-rule="evenodd" clip-rule="evenodd" d="M12.9106 11.0895L9.71394 14.8189L13.0718 22.2807C13.5198 23.2763 14.9498 23.2271 15.3283 22.203L21.8826 4.46792C22.4243 3.00216 20.9978 1.57575 19.5321 2.11744L1.79697 8.67172C0.772919 9.05017 0.723669 10.4802 1.71925 10.9282L9.1812 14.2861L12.9106 11.0895ZM11.9845 10.009L8.94117 12.6175L2.75627 9.83434L20.0254 3.45228C20.3511 3.3319 20.6681 3.64888 20.5477 3.97461L14.1657 21.2437L11.3825 15.0589L13.9911 12.0157C15.1348 10.6815 13.3184 8.86572 11.9845 10.009Z" fill="currentColor"/>
</svg>
