<svg width="24" height="24" viewBox="0 0 24 24" fill="none" xmlns="http://www.w3.org/2000/svg">
<path fill-rule="evenodd" clip-rule="evenodd" d="M12.0001 16.1292C14.2788 16.1292 16.1261 14.2805 16.1261 12C16.1261 9.71953 14.2788 7.87084 12.0001 7.87084C9.72139 7.87084 7.87413 9.71953 7.87413 12C7.87413 14.2805 9.72139 16.1292 12.0001 16.1292ZM14.7182 12C14.7182 13.5023 13.5013 14.7202 12.0001 14.7202C10.499 14.7202 9.28204 13.5023 9.28204 12C9.28204 10.4977 10.499 9.27984 12.0001 9.27984C13.5013 9.27984 14.7182 10.4977 14.7182 12Z" fill="currentColor"/>
<path fill-rule="evenodd" clip-rule="evenodd" d="M20.9283 10.1821C21.5304 9.6525 21.6753 8.77119 21.2745 8.07643L20.0325 5.92358C19.6317 5.22881 18.7966 4.91376 18.0373 5.17084L16.838 5.57686C16.3174 5.18356 15.7474 4.85213 15.139 4.59354L14.891 3.35292C14.7338 2.56625 14.0436 2 13.242 2H10.758C9.95639 2 9.2662 2.56625 9.10899 3.35292L8.86104 4.59363C8.25263 4.85221 7.6827 5.18363 7.16216 5.57691L5.96273 5.17084C5.20338 4.91376 4.36827 5.22881 3.96746 5.92358L2.72547 8.07643C2.32465 8.77119 2.46957 9.6525 3.07171 10.1821L4.02252 11.0183C3.98338 11.3402 3.96324 11.6678 3.96324 12C3.96324 12.3322 3.98337 12.6598 4.02251 12.9816L3.07162 13.8179C2.46948 14.3475 2.32456 15.2288 2.72537 15.9236L3.96737 18.0764C4.36818 18.7712 5.20328 19.0862 5.96264 18.8292L7.16214 18.4231C7.68268 18.8164 8.25262 19.1478 8.86104 19.4064L9.10899 20.6471C9.2662 21.4337 9.95639 22 10.758 22H13.242C14.0436 22 14.7338 21.4337 14.891 20.6471L15.139 19.4065C15.7474 19.1479 16.3174 18.8164 16.838 18.4231L18.0374 18.8292C18.7967 19.0862 19.6318 18.7712 20.0326 18.0764L21.2746 15.9236C21.6754 15.2288 21.5305 14.3475 20.9284 13.8179L19.9777 12.9818C20.0168 12.6599 20.037 12.3323 20.037 12C20.037 11.6677 20.0168 11.34 19.9777 11.0182L20.9283 10.1821ZM9.49973 5.85374L10.0934 5.61156L10.4896 3.62925C10.5152 3.50118 10.6275 3.409 10.758 3.409H13.242C13.3725 3.409 13.4848 3.50118 13.5104 3.62924L13.9066 5.6115L14.5003 5.85367C15.0647 6.08388 15.5908 6.39004 16.0659 6.75983L16.5725 7.15418L18.4884 6.50554C18.6121 6.46369 18.748 6.51498 18.8133 6.62808L20.0552 8.78093C20.1205 8.89403 20.0969 9.0375 19.9989 9.12371L18.4813 10.4585L18.5678 11.0934C18.6081 11.3893 18.629 11.6919 18.629 12C18.629 12.3081 18.6081 12.6107 18.5678 12.9065L18.4813 13.5415L19.999 14.8763C20.097 14.9625 20.1206 15.106 20.0553 15.2191L18.8133 17.3719C18.7481 17.485 18.6121 17.5363 18.4885 17.4945L16.5725 16.8458L16.0659 17.2402C15.5908 17.61 15.0647 17.9161 14.5003 18.1463L13.9066 18.3885L13.5104 20.3708C13.4848 20.4988 13.3725 20.591 13.242 20.591H10.758C10.6275 20.591 10.5152 20.4988 10.4896 20.3708L10.0934 18.3884L9.49973 18.1463C8.93536 17.916 8.40927 17.6099 7.93424 17.2401L7.42763 16.8458L5.51147 17.4945C5.38785 17.5363 5.2519 17.485 5.18666 17.3719L3.94467 15.2191C3.87942 15.106 3.90301 14.9625 4.00103 14.8763L5.5189 13.5413L5.43236 12.9064C5.39206 12.6106 5.37115 12.3081 5.37115 12C5.37115 11.6919 5.39206 11.3894 5.43237 11.0936L5.51891 10.4586L4.00113 9.12371C3.9031 9.0375 3.87951 8.89403 3.94476 8.78093L5.18675 6.62808C5.252 6.51498 5.38795 6.46369 5.51156 6.50554L7.42765 7.15423L7.93426 6.75987C8.40929 6.3901 8.93537 6.08395 9.49973 5.85374Z" fill="currentColor"/>
</svg>
