<svg width="24" height="24" viewBox="0 0 24 24" fill="none" xmlns="http://www.w3.org/2000/svg">
<path fill-rule="evenodd" clip-rule="evenodd" d="M17.9394 3.64219C16.9516 2.39828 14.9158 3.08243 14.9158 4.65829L14.9158 6.02224C12.2356 6.13881 9.26369 6.94497 6.72495 8.95791C3.95401 11.155 1.77132 14.7324 1.00643 20.2263C0.960436 20.5567 1.16524 20.8712 1.49049 20.9696C1.81575 21.068 2.16593 20.9214 2.31817 20.6232C4.52069 16.3087 8.83262 15.2349 14.9158 15.1626L14.9158 16.5074C14.9158 18.0832 16.9516 18.7674 17.9394 17.5235L22.6441 11.5989C23.1187 11.0013 23.1187 10.1644 22.6441 9.56674L17.9394 3.64219ZM16.3074 4.65829C16.3074 4.3802 16.6666 4.25947 16.841 4.47898L21.5456 10.4035C21.6294 10.509 21.6294 10.6567 21.5456 10.7622L16.841 16.6867C16.6666 16.9062 16.3074 16.7855 16.3074 16.5074L16.3074 14.4771C16.3074 14.1007 15.9959 13.7956 15.6116 13.7956C10.4556 13.7956 5.9882 14.4037 3.026 17.3177C4.00669 13.8656 5.67774 11.5418 7.60053 10.0173C10.0584 8.06847 12.9981 7.37011 15.6116 7.37011C15.9959 7.37011 16.3074 7.06499 16.3074 6.68862L16.3074 4.65829Z" fill="currentColor"/>
</svg>
