<svg width="24" height="24" viewBox="0 0 24 24" fill="none" xmlns="http://www.w3.org/2000/svg">
<path fill-rule="evenodd" clip-rule="evenodd" d="M12 5.17376L10.4943 8.7747C10.1548 9.58652 9.38726 10.1412 8.50613 10.2115L4.5978 10.5231L7.57554 13.0603C8.24686 13.6323 8.54004 14.5298 8.33494 15.385L7.42519 19.1786L10.7713 17.1457C11.5256 16.6874 12.4744 16.6874 13.2287 17.1457L16.5748 19.1786L15.6651 15.385C15.46 14.5298 15.7531 13.6323 16.4245 13.0603L19.4022 10.5231L15.4939 10.2115C14.6127 10.1412 13.8452 9.58652 13.5057 8.7747L12 5.17376ZM12.757 3.00236C12.477 2.33255 11.523 2.33255 11.243 3.00235L9.0748 8.18745C8.95673 8.46983 8.68976 8.66276 8.38328 8.6872L2.75556 9.13597C2.02857 9.19394 1.73379 10.0964 2.28768 10.5683L6.57541 14.2216C6.80891 14.4206 6.91088 14.7328 6.83954 15.0302L5.52957 20.4927C5.36035 21.1983 6.1321 21.756 6.7545 21.3779L11.5726 18.4507C11.835 18.2913 12.165 18.2913 12.4274 18.4507L17.2455 21.3779C17.8679 21.756 18.6396 21.1983 18.4704 20.4927L17.1605 15.0302C17.0891 14.7328 17.1911 14.4206 17.4246 14.2216L21.7123 10.5683C22.2662 10.0964 21.9714 9.19394 21.2444 9.13597L15.6167 8.6872C15.3102 8.66276 15.0433 8.46983 14.9252 8.18745L12.757 3.00236Z" fill="currentColor"/>
</svg>
