<svg width="24" height="24" viewBox="0 0 24 24" fill="none" xmlns="http://www.w3.org/2000/svg">
<path d="M17.75 16.15L15.75 21.175C15.6667 21.325 15.55 21.4583 15.4 21.575C15.25 21.6917 15.075 21.75 14.875 21.75H14.55C13.9333 21.75 13.375 21.6083 12.875 21.325C12.375 21.025 11.975 20.625 11.675 20.125C11.3917 19.625 11.25 19.0667 11.25 18.45V16.15C11.25 16.1 11.3083 16.125 11.425 16.225C11.5583 16.325 11.675 16.4417 11.775 16.575C11.875 16.6917 11.9 16.75 11.85 16.75H6.29999C5.54999 16.75 4.88332 16.5667 4.29999 16.2C3.73332 15.8167 3.31665 15.3083 3.04999 14.675C2.79999 14.0417 2.74165 13.35 2.87499 12.6L3.74999 7.575C3.86665 6.95833 4.11665 6.4 4.49999 5.9C4.89999 5.38333 5.38332 4.98333 5.94999 4.7C6.53332 4.4 7.13332 4.25 7.74999 4.25H17.75V16.15ZM18 4.25C18.6833 4.25 19.3083 4.41667 19.875 4.75C20.4583 5.08333 20.9167 5.54167 21.25 6.125C21.5833 6.69167 21.75 7.31667 21.75 8V13C21.75 13.6833 21.5833 14.3167 21.25 14.9C20.9167 15.4667 20.4583 15.9167 19.875 16.25C19.3083 16.5833 18.6833 16.75 18 16.75H16.25V4.25H18ZM17.75 5.75V15.25H18C18.45 15.25 18.8417 15.1583 19.175 14.975C19.525 14.775 19.7917 14.5083 19.975 14.175C20.1583 13.8417 20.25 13.45 20.25 13V8C20.25 7.55 20.1583 7.15833 19.975 6.825C19.7917 6.475 19.525 6.20833 19.175 6.025C18.8417 5.84167 18.45 5.75 18 5.75H17.75ZM7.74999 5.75C7.34999 5.75 6.96665 5.84167 6.59999 6.025C6.24999 6.19167 5.94999 6.43333 5.69999 6.75C5.46665 7.06667 5.31665 7.425 5.24999 7.825L4.34999 12.875C4.24999 13.375 4.26665 13.8 4.39999 14.15C4.53332 14.5 4.75832 14.775 5.07499 14.975C5.39165 15.1583 5.79999 15.25 6.29999 15.25H11.85C12.1167 15.25 12.3333 15.3333 12.5 15.5C12.6667 15.6667 12.75 15.8833 12.75 16.15V18.45C12.75 18.8333 12.8167 19.1583 12.95 19.425C13.1 19.6917 13.3083 19.9 13.575 20.05C13.8417 20.1833 14.1667 20.25 14.55 20.25H14.875H14.825C14.7917 20.2667 14.7333 20.2917 14.65 20.325C14.5833 20.3417 14.5083 20.375 14.425 20.425L16.25 15.85V5.75H7.74999Z" fill="currentColor"/>
</svg>
