<svg width="24" height="24" viewBox="0 0 24 24" fill="none" xmlns="http://www.w3.org/2000/svg">
<path d="M6 21.75C4.83333 21.75 3.91667 21.4167 3.25 20.75C2.58333 20.0833 2.25 19.1667 2.25 18V17.9C2.25 16.9667 2.69167 16.15 3.575 15.45C4.475 14.75 5.66667 14.2083 7.15 13.825C8.63333 13.4417 10.25 13.25 12 13.25C13.75 13.25 15.3667 13.4417 16.85 13.825C18.35 14.2083 19.5417 14.75 20.425 15.45C21.3083 16.15 21.75 16.9667 21.75 17.9V18C21.75 19.1667 21.4167 20.0833 20.75 20.75C20.1 21.4167 19.1833 21.75 18 21.75H6ZM3.75 18C3.75 18.8167 3.91667 19.4 4.25 19.75C4.6 20.0833 5.18333 20.25 6 20.25H18C18.8333 20.25 19.4167 20.0833 19.75 19.75C20.0833 19.4 20.25 18.8167 20.25 18V17.9C20.25 17.3333 19.8917 16.8083 19.175 16.325C18.475 15.8417 17.4917 15.4583 16.225 15.175C14.975 14.8917 13.5667 14.75 12 14.75C10.4333 14.75 9.025 14.8917 7.775 15.175C6.525 15.4583 5.54167 15.8417 4.825 16.325C4.10833 16.8083 3.75 17.3333 3.75 17.9V18ZM12 11.75C11.1333 11.75 10.3333 11.5417 9.6 11.125C8.88333 10.6917 8.30833 10.1167 7.875 9.4C7.45833 8.66667 7.25 7.86667 7.25 7C7.25 6.13333 7.45833 5.34167 7.875 4.625C8.30833 3.89167 8.88333 3.31667 9.6 2.9C10.3333 2.46667 11.1333 2.25 12 2.25C12.8667 2.25 13.6583 2.46667 14.375 2.9C15.1083 3.31667 15.6833 3.89167 16.1 4.625C16.5333 5.34167 16.75 6.13333 16.75 7C16.75 7.86667 16.5333 8.66667 16.1 9.4C15.6833 10.1167 15.1083 10.6917 14.375 11.125C13.6583 11.5417 12.8667 11.75 12 11.75ZM12 10.25C12.6333 10.25 13.1917 10.1167 13.675 9.85C14.175 9.56667 14.5583 9.18333 14.825 8.7C15.1083 8.2 15.25 7.63333 15.25 7C15.25 6.36667 15.1083 5.80833 14.825 5.325C14.5583 4.825 14.175 4.44167 13.675 4.175C13.1917 3.89167 12.6333 3.75 12 3.75C11.3667 3.75 10.8 3.89167 10.3 4.175C9.81667 4.44167 9.43333 4.825 9.15 5.325C8.88333 5.80833 8.75 6.36667 8.75 7C8.75 7.63333 8.88333 8.2 9.15 8.7C9.43333 9.18333 9.81667 9.56667 10.3 9.85C10.8 10.1167 11.3667 10.25 12 10.25Z" fill="currentColor"/>
</svg>
