<svg width="24" height="24" viewBox="0 0 24 24" fill="none" xmlns="http://www.w3.org/2000/svg">
<path fill-rule="evenodd" clip-rule="evenodd" d="M12 16.0833C14.2746 16.0833 16.1185 14.2552 16.1185 12C16.1185 9.74484 14.2746 7.91667 12 7.91667C9.7254 7.91667 7.88146 9.74484 7.88146 12C7.88146 14.2552 9.7254 16.0833 12 16.0833ZM14.7457 12C14.7457 13.5034 13.5164 14.7222 12 14.7222C10.4836 14.7222 9.25431 13.5034 9.25431 12C9.25431 10.4966 10.4836 9.27778 12 9.27778C13.5164 9.27778 14.7457 10.4966 14.7457 12Z" fill="currentColor"/>
<path fill-rule="evenodd" clip-rule="evenodd" d="M22.9669 12.0766L23 12L22.9669 11.9234L22.9661 11.9215L22.9641 11.9171L22.957 11.9011C22.9508 11.8873 22.9416 11.8672 22.9294 11.8413C22.905 11.7895 22.8686 11.7144 22.8196 11.6192C22.7217 11.4289 22.5735 11.1583 22.3711 10.8343C21.9667 10.1865 21.3448 9.32326 20.4738 8.45973C18.7302 6.73105 15.9862 5 12 5C8.0138 5 5.26977 6.73105 3.52619 8.45973C2.65522 9.32326 2.0333 10.1865 1.62884 10.8343C1.42652 11.1583 1.27834 11.4289 1.18039 11.6192C1.13142 11.7144 1.09498 11.7895 1.0706 11.8413C1.0584 11.8672 1.04922 11.8873 1.04299 11.9011L1.03586 11.9171L1.03393 11.9215L1.03338 11.9228L1 12L1.0331 12.0766L1.03393 12.0785L1.03586 12.0829L1.04299 12.0989C1.04922 12.1127 1.0584 12.1328 1.0706 12.1587C1.09498 12.2105 1.13142 12.2856 1.18039 12.3808C1.27834 12.5711 1.42652 12.8417 1.62884 13.1657C2.0333 13.8135 2.65522 14.6767 3.52619 15.5403C5.26977 17.2689 8.0138 19 12 19C15.9862 19 18.7302 17.2689 20.4738 15.5403C21.3448 14.6767 21.9667 13.8135 22.3711 13.1657C22.5735 12.8417 22.7217 12.5711 22.8196 12.3808C22.8686 12.2856 22.905 12.2105 22.9294 12.1587C22.9416 12.1328 22.9508 12.1127 22.957 12.0989L22.9641 12.0829L22.9661 12.0785L22.9669 12.0766ZM2.79612 12.4493C2.69058 12.2803 2.60234 12.1288 2.53073 12C2.60234 11.8712 2.69058 11.7197 2.79612 11.5507C3.15794 10.9712 3.71656 10.1959 4.49694 9.42218C6.0478 7.88458 8.46024 6.36111 12 6.36111C15.5398 6.36111 17.9522 7.88458 19.503 9.42218C20.2834 10.1959 20.8421 10.9712 21.2039 11.5507C21.3094 11.7197 21.3976 11.8712 21.4693 12C21.3976 12.1288 21.3094 12.2803 21.2039 12.4493C20.8421 13.0288 20.2834 13.8041 19.503 14.5778C17.9522 16.1154 15.5398 17.6389 12 17.6389C8.46024 17.6389 6.0478 16.1154 4.49694 14.5778C3.71656 13.8041 3.15794 13.0288 2.79612 12.4493Z" fill="currentColor"/>
</svg>
