<svg width="24" height="24" viewBox="0 0 24 24" fill="none" xmlns="http://www.w3.org/2000/svg">
<path d="M3.59996 21.625C3.36663 21.6916 3.14163 21.675 2.92496 21.575C2.70829 21.4583 2.54163 21.2916 2.42496 21.075C2.32496 20.8583 2.30829 20.6333 2.37496 20.4L3.32496 16.6L16.025 3.92495C16.3916 3.55828 16.8083 3.30828 17.275 3.17495C17.7583 3.04162 18.2333 3.04162 18.7 3.17495C19.1833 3.30828 19.6083 3.55828 19.975 3.92495L20.075 4.02495C20.4416 4.39162 20.6916 4.81662 20.825 5.29995C20.9583 5.76662 20.9583 6.24162 20.825 6.72495C20.6916 7.19162 20.4416 7.60828 20.075 7.97495L7.39996 20.675L3.59996 21.625ZM3.82496 20.8C3.84163 20.75 3.84163 20.6916 3.82496 20.625C3.82496 20.5583 3.80829 20.475 3.77496 20.375C3.75829 20.275 3.73329 20.1666 3.69996 20.05L6.62496 19.325L19.025 6.92495C19.3416 6.60828 19.5 6.29995 19.5 5.99995C19.5 5.68328 19.3416 5.37495 19.025 5.07495L18.925 4.97495C18.625 4.65828 18.3166 4.49995 18 4.49995C17.7 4.49995 17.3916 4.65828 17.075 4.97495L4.67496 17.375L3.82496 20.8ZM14.475 6.52495L15.525 5.47495L18.525 8.47495L17.475 9.52495L14.475 6.52495Z" fill="currentColor"/>
</svg>
