<svg width="24" height="24" viewBox="0 0 24 24" fill="none" xmlns="http://www.w3.org/2000/svg">
<path fill-rule="evenodd" clip-rule="evenodd" d="M4.96226 12C4.96226 13.6878 6.33709 15.0557 8.03279 15.0563H16.9481C19.7382 15.0563 22 12.8051 22 10.0282C22 7.25119 19.7382 5 16.9481 5H8.03302C4.14879 5 1 8.13401 1 12C1 15.866 4.14879 19 8.03302 19H16.4528C17.0546 19 17.5425 18.5144 17.5425 17.9155C17.5425 17.3165 17.0546 16.831 16.4528 16.831H8.03302C5.35235 16.831 3.17925 14.6681 3.17925 12C3.17925 9.33192 5.35235 7.16901 8.03302 7.16901H16.9481C18.5346 7.16901 19.8208 8.4491 19.8208 10.0282C19.8208 11.6072 18.5346 12.8873 16.9481 12.8873H8.03339C7.54024 12.887 7.14151 12.4893 7.14151 12C7.14151 11.5107 7.54024 11.113 8.03339 11.1127H16.4528C17.0546 11.1127 17.5425 10.6271 17.5425 10.0282C17.5425 9.42921 17.0546 8.94366 16.4528 8.94366H8.03279C6.33709 8.9443 4.96226 10.3122 4.96226 12Z" fill="currentColor"/>
</svg>
