<svg width="24" height="24" viewBox="0 0 24 24" fill="none" xmlns="http://www.w3.org/2000/svg">
<path d="M7 20.75C6.33333 20.75 5.70833 20.5834 5.125 20.25C4.55833 19.9 4.1 19.4417 3.75 18.875C3.41667 18.2917 3.25 17.6667 3.25 17.0001V11.2501C3.25 10.7501 3.35 10.2667 3.55 9.80005C3.75 9.33338 4.01667 8.93338 4.35 8.60005L9.35 3.60005C9.83333 3.11672 10.3917 2.79172 11.025 2.62505C11.675 2.44172 12.3167 2.44172 12.95 2.62505C13.6 2.79172 14.1667 3.11672 14.65 3.60005L19.65 8.60005C20 8.93338 20.2667 9.33338 20.45 9.80005C20.65 10.2667 20.75 10.7501 20.75 11.2501V17.0001C20.75 17.6667 20.5833 18.2917 20.25 18.875C19.9167 19.4417 19.4583 19.9 18.875 20.25C18.3083 20.5834 17.6833 20.75 17 20.75H7ZM13.25 13.45C13.25 13.2 13.2 12.9834 13.1 12.8C13.0167 12.6167 12.8833 12.4834 12.7 12.4001C12.5167 12.3 12.3 12.25 12.05 12.25H11.95C11.7 12.25 11.4833 12.3 11.3 12.4001C11.1333 12.4834 11 12.6167 10.9 12.8C10.8 12.9834 10.75 13.2 10.75 13.45V19.25H13.25V13.45Z" fill="currentColor"/>
</svg>
