<svg width="24" height="24" viewBox="0 0 24 24" fill="none" xmlns="http://www.w3.org/2000/svg">
<path d="M11.243 3.00235C11.523 2.33255 12.477 2.33255 12.757 3.00236L14.9252 8.18745C15.0433 8.46983 15.3102 8.66276 15.6167 8.6872L21.2444 9.13597C21.9714 9.19394 22.2662 10.0964 21.7123 10.5683L17.4246 14.2216C17.1911 14.4206 17.0891 14.7328 17.1605 15.0302L18.4704 20.4927C18.6396 21.1983 17.8679 21.756 17.2455 21.3779L12.4274 18.4507C12.165 18.2913 11.835 18.2913 11.5726 18.4507L6.7545 21.3779C6.1321 21.756 5.36035 21.1983 5.52957 20.4927L6.83954 15.0302C6.91088 14.7328 6.80891 14.4206 6.57541 14.2216L2.28768 10.5683C1.73379 10.0964 2.02857 9.19394 2.75556 9.13597L8.38328 8.6872C8.68976 8.66276 8.95673 8.46983 9.0748 8.18745L11.243 3.00235Z" fill="currentColor"/>
</svg>
