<svg width="24" height="24" viewBox="0 0 24 24" fill="none" xmlns="http://www.w3.org/2000/svg">
<path d="M6.25 7.85L8.25 2.825C8.33333 2.675 8.45 2.54167 8.6 2.425C8.76667 2.30833 8.94167 2.25 9.125 2.25H9.45C10.0833 2.25 10.65 2.39167 11.15 2.675C11.65 2.95833 12.0417 3.35 12.325 3.85C12.6083 4.35 12.75 4.91667 12.75 5.55V7.85C12.75 7.88333 12.6917 7.85 12.575 7.75C12.4583 7.65 12.35 7.54167 12.25 7.425C12.15 7.30833 12.1167 7.25 12.15 7.25H17.7C18.45 7.25 19.1083 7.43333 19.675 7.8C20.2583 8.16667 20.6833 8.66667 20.95 9.3C21.2167 9.93333 21.2833 10.625 21.15 11.375L20.25 16.425C20.1333 17.0417 19.875 17.6083 19.475 18.125C19.0917 18.625 18.6083 19.025 18.025 19.325C17.4583 19.6083 16.8667 19.75 16.25 19.75H6.25V7.85ZM6 19.75C5.31667 19.75 4.68333 19.5833 4.1 19.25C3.53333 18.9167 3.08333 18.4667 2.75 17.9C2.41667 17.3167 2.25 16.6833 2.25 16V11C2.25 10.3167 2.41667 9.69167 2.75 9.125C3.08333 8.54167 3.53333 8.08333 4.1 7.75C4.68333 7.41667 5.31667 7.25 6 7.25H7.75V19.75H6ZM6.25 18.25V8.75H6C5.55 8.75 5.15833 8.84167 4.825 9.025C4.49167 9.20833 4.225 9.475 4.025 9.825C3.84167 10.1583 3.75 10.55 3.75 11V16C3.75 16.45 3.84167 16.8417 4.025 17.175C4.225 17.5083 4.49167 17.775 4.825 17.975C5.15833 18.1583 5.55 18.25 6 18.25H6.25Z" fill="currentColor"/>
</svg>
