<svg width="24" height="24" viewBox="0 0 24 24" fill="none" xmlns="http://www.w3.org/2000/svg">
<g clip-path="url(#clip0_2_808)">
<path d="M17.75 16.15L15.75 21.175C15.6667 21.325 15.55 21.4583 15.4 21.575C15.25 21.6917 15.075 21.75 14.875 21.75H14.55C13.9333 21.75 13.375 21.6083 12.875 21.325C12.375 21.025 11.975 20.625 11.675 20.125C11.3917 19.625 11.25 19.0667 11.25 18.45V16.15C11.25 16.1 11.3083 16.125 11.425 16.225C11.5583 16.325 11.675 16.4417 11.775 16.575C11.875 16.6917 11.9 16.75 11.85 16.75H6.3C5.55 16.75 4.88333 16.5667 4.3 16.2C3.73333 15.8167 3.31667 15.3083 3.05 14.675C2.8 14.0417 2.74167 13.35 2.875 12.6L3.75 7.575C3.86667 6.95833 4.11667 6.4 4.5 5.9C4.9 5.38333 5.38333 4.98333 5.95 4.7C6.53333 4.4 7.13333 4.25 7.75 4.25H17.75V16.15ZM18 4.25C18.6833 4.25 19.3083 4.41667 19.875 4.75C20.4583 5.08333 20.9167 5.54167 21.25 6.125C21.5833 6.69167 21.75 7.31667 21.75 8V13C21.75 13.6833 21.5833 14.3167 21.25 14.9C20.9167 15.4667 20.4583 15.9167 19.875 16.25C19.3083 16.5833 18.6833 16.75 18 16.75H16.25V4.25H18ZM17.75 5.75V15.25H18C18.45 15.25 18.8417 15.1583 19.175 14.975C19.525 14.775 19.7917 14.5083 19.975 14.175C20.1583 13.8417 20.25 13.45 20.25 13V8C20.25 7.55 20.1583 7.15833 19.975 6.825C19.7917 6.475 19.525 6.20833 19.175 6.025C18.8417 5.84167 18.45 5.75 18 5.75H17.75Z" fill="currentColor"/>
</g>
<defs>
<clipPath id="clip0_2_808">
<rect width="24" height="24" fill="currentColor"/>
</clipPath>
</defs>
</svg>
