<svg width="24" height="24" viewBox="0 0 24 24" fill="none" xmlns="http://www.w3.org/2000/svg">
<path d="M6.0249 21.75C4.84157 21.75 3.91657 21.4167 3.2499 20.75C2.5999 20.0833 2.2749 19.1667 2.2749 18V17.9C2.2749 16.9667 2.71657 16.15 3.5999 15.45C4.48324 14.75 5.66657 14.2083 7.1499 13.825C8.6499 13.4417 10.2749 13.25 12.0249 13.25C13.7749 13.25 15.3916 13.4417 16.8749 13.825C18.3582 14.2083 19.5416 14.75 20.4249 15.45C21.3249 16.15 21.7749 16.9667 21.7749 17.9V18C21.7749 19.1667 21.4416 20.0833 20.7749 20.75C20.1082 21.4167 19.1832 21.75 17.9999 21.75H6.0249ZM11.9999 11.75C11.1499 11.75 10.3582 11.5417 9.6249 11.125C8.90824 10.6917 8.33324 10.1167 7.8999 9.4C7.48324 8.66667 7.2749 7.86667 7.2749 7C7.2749 6.13333 7.48324 5.34167 7.8999 4.625C8.33324 3.89167 8.90824 3.31667 9.6249 2.9C10.3582 2.46667 11.1499 2.25 11.9999 2.25C12.8832 2.25 13.6832 2.46667 14.3999 2.9C15.1332 3.31667 15.7082 3.89167 16.1249 4.625C16.5582 5.34167 16.7749 6.13333 16.7749 7C16.7749 7.86667 16.5582 8.66667 16.1249 9.4C15.7082 10.1167 15.1332 10.6917 14.3999 11.125C13.6832 11.5417 12.8832 11.75 11.9999 11.75Z" fill="currentColor"/>
</svg>
