<svg width="24" height="24" viewBox="0 0 24 24" fill="none" xmlns="http://www.w3.org/2000/svg">
<path d="M3.59996 21.625C3.36663 21.6916 3.14163 21.675 2.92496 21.575C2.70829 21.4583 2.54163 21.2916 2.42496 21.075C2.32496 20.8583 2.30829 20.6333 2.37496 20.4L3.32496 16.6L16.025 3.92495C16.3916 3.55828 16.8083 3.30828 17.275 3.17495C17.7583 3.04162 18.2333 3.04162 18.7 3.17495C19.1833 3.30828 19.6083 3.55828 19.975 3.92495L20.075 4.02495C20.4416 4.39162 20.6916 4.81662 20.825 5.29995C20.9583 5.76662 20.9583 6.24162 20.825 6.72495C20.6916 7.19162 20.4416 7.60828 20.075 7.97495L7.39996 20.675L3.59996 21.625ZM15 4.92495L13.95 5.99995L18 10.05L19.075 8.99995L15 4.92495Z" fill="currentColor"/>
</svg>
